<svg width="50" height="50" viewBox="0 0 50 50" fill="none" xmlns="http://www.w3.org/2000/svg">
<g clip-path="url(#clip0_23800_1047)">
<path d="M42.1875 36.6406C42.1875 46.0938 34.5312 46.0938 25 46.0938C15.4688 46.0938 7.8125 46.0938 7.8125 36.6406C7.8125 27.1875 15.5469 11.7188 25 11.7188C34.4531 11.7188 42.1875 27.1094 42.1875 36.6406Z" fill="#DBB471"/>
<path opacity="0.5" d="M42.1875 36.6406C42.1875 33.4375 41.3281 29.5313 39.7656 25.7812C40.0781 28.2031 39.4531 32.5 32.0312 34.1406C21.4844 36.4063 26.9531 39.375 22.8125 39.7656C19.2969 40.0781 9.92188 38.6719 8.04688 33.3594C7.89063 34.5313 7.73438 35.625 7.73438 36.7188C7.8125 46.0938 15.5469 46.0938 25 46.0938C34.4531 46.0938 42.1875 46.0938 42.1875 36.6406Z" fill="#89664C"/>
<path d="M29.6095 32.1094C29.297 30.5469 27.9688 30.0781 26.5626 30V27.8125C26.9532 27.9687 27.422 28.2031 27.7345 28.4375C28.3595 28.8281 28.9845 27.8125 28.3595 27.4219C27.8126 27.1094 27.1876 26.7969 26.5626 26.5625V23.9844C26.5626 23.2031 25.3907 23.2031 25.3907 23.9844V26.25C24.7657 26.1719 24.1407 26.1719 23.5157 26.25C23.4376 25.7031 23.2813 25.1562 23.1251 24.6094C22.9688 23.8281 21.797 24.1406 22.0313 24.9219C22.1876 25.4687 22.2657 26.0156 22.422 26.5625C22.3438 26.5625 22.3438 26.5625 22.2657 26.6406C20.7032 27.2656 19.6876 28.8281 20.8595 30.3125C21.4063 31.0156 22.1095 31.25 22.8907 31.4062C22.9688 32.4219 22.9688 33.4375 22.9688 34.4531C22.422 34.1406 21.9532 33.6719 21.5626 33.2812C21.0157 32.7344 20.2345 33.5938 20.7032 34.1406C21.4063 34.9219 22.1876 35.4688 22.9688 35.8594C22.9688 36.7188 23.047 37.5781 23.1251 38.4375C23.2032 39.2188 24.3751 39.2188 24.297 38.4375C24.2188 37.6562 24.1407 36.9531 24.1407 36.1719C24.6095 36.25 25.0782 36.25 25.547 36.25C25.6251 37.0313 25.7032 37.8125 25.7813 38.6719C25.8595 39.4531 27.0313 39.4531 26.9532 38.6719C26.8751 37.8125 26.797 36.9531 26.7188 36.0156C28.4376 35.3906 30.0001 34.0625 29.6095 32.1094ZM25.3907 27.4219V30C25.0001 30 24.6876 30.0781 24.3751 30.0781H23.9845L23.7501 27.2656C24.297 27.2656 24.8438 27.3437 25.3907 27.4219ZM22.5782 29.9219C22.2657 29.8437 21.9532 29.6094 21.6407 29.375C20.9376 28.6719 21.9532 28.0469 22.5782 27.7344C22.6563 28.5156 22.7345 29.2188 22.8126 30C22.7345 30 22.6563 30 22.5782 29.9219ZM25.1563 34.9219C24.7657 35 24.4532 34.9219 24.1407 34.8437C24.0626 33.6719 24.0626 32.5 24.0626 31.25C24.5313 31.25 25.0001 31.1719 25.4688 31.1719C25.4688 32.4219 25.547 33.5937 25.547 34.8437C25.3907 34.9219 25.3126 34.9219 25.1563 34.9219ZM27.7345 34.0625C27.422 34.2969 27.0313 34.4531 26.7188 34.6094C26.6407 33.4375 26.6407 32.3438 26.6407 31.1719H27.0313C28.5157 31.4844 28.9063 33.125 27.7345 34.0625Z" fill="#89664C"/>
<path d="M26.5625 42.9688H24.7656V46.0938L32.0312 50L48.4375 44.9219V42.1875L42.4219 38.6719L26.5625 42.9688Z" fill="#699635"/>
<path d="M25 41.1719C25 41.1719 26.875 44.2188 32.1875 46.875C32.1875 46.875 40.4688 46.4844 48.4375 41.1719C48.4375 41.1719 43.8281 38.9062 42.5 35.9375C42.5 35.9375 39.375 40.3125 25 41.1719Z" fill="#83BF4F"/>
<path d="M21.4844 42.8906L23.2031 42.8125L23.4375 45.7031L16.6406 50L0.3125 46.4844L0.078125 43.9063L5.625 40.0781L21.4844 42.8906Z" fill="#699635"/>
<path d="M22.8125 41.0937C22.8125 41.0937 21.1719 44.1406 16.25 47.0313C16.25 47.0313 8.20312 47.2656 0 42.9688C0 42.9688 4.375 40.4688 5.39062 37.5C5.39062 37.5 8.82813 41.4062 22.8125 41.0937Z" fill="#83BF4F"/>
<path d="M18.9063 41.953C18.9063 41.953 18.6719 42.578 19.7656 42.6561L16.875 45.078C16.875 45.078 15.1562 44.9218 14.7656 46.0936C14.7656 46.0936 7.73438 45.3124 3.20312 43.2811C3.20312 43.2811 4.14062 42.578 2.96875 42.1093C2.96875 42.1093 4.29688 41.1718 4.60938 40.3124C4.60938 40.3124 5.85937 40.4686 6.25 39.5311C6.40625 39.453 11.0938 42.2655 18.9063 41.953Z" stroke="#699635" stroke-width="0.25" stroke-miterlimit="10"/>
<path d="M6.875 43.0469C7.6948 43.0469 8.35937 42.5922 8.35937 42.0312C8.35937 41.4703 7.6948 41.0156 6.875 41.0156C6.0552 41.0156 5.39062 41.4703 5.39062 42.0312C5.39062 42.5922 6.0552 43.0469 6.875 43.0469Z" fill="#699635"/>
<path d="M14.8438 40.7812C14.8438 40.7812 13.0469 43.125 9.14062 46.3281L9.375 48.4375L6.64062 47.8125L6.48438 45.5469C6.48438 45.5469 10.4687 41.875 11.3281 40.0781C11.25 40.0781 12.6562 40.5469 14.8438 40.7812ZM32.8906 40.2344C32.8906 40.2344 33.5938 42.1094 38.9062 45.5469V47.8125L41.9531 46.875V44.5312C41.9531 44.5312 38.2813 41.9531 36.0938 39.375L32.8906 40.2344Z" fill="#F9F3D9"/>
<path d="M28.4375 37.7344L26.7188 37.6563L26.5625 40.8594L33.5156 45.3125L49.8438 40.8594L49.9219 38.0469L44.2187 34.0625L28.4375 37.7344Z" fill="#699635"/>
<path d="M27.0312 35.7812C27.0312 35.7812 28.75 39.0625 33.8281 42.0312C33.8281 42.0312 41.9531 42.0313 50 37.0313C50 37.0313 45.5469 34.4531 44.4531 31.25C44.4531 31.25 41.0938 35.625 27.0312 35.7812Z" fill="#83BF4F"/>
<path d="M30.5469 36.6406C30.5469 36.6406 30.9375 37.2656 29.6875 37.5L32.9688 40.0781C32.9688 40.0781 34.8438 39.6094 35.4688 40.7031C35.4688 40.7031 43.2813 39.2969 46.875 37.4219C46.875 37.4219 45.7031 36.875 46.875 36.1719C46.875 36.1719 45.4687 35 44.9219 34.2188C44.9219 34.2188 43.5938 34.6094 42.8906 33.6719C42.8906 33.75 40.0781 36.25 30.5469 36.6406Z" stroke="#699635" stroke-width="0.25" stroke-miterlimit="10"/>
<path d="M36.5625 38.5938C36.25 38.9844 35.2343 39.1406 34.375 38.9063C33.5156 38.6719 33.125 38.125 33.4375 37.7344C33.75 37.3438 34.7656 37.1875 35.625 37.4219C36.4843 37.6563 36.875 38.125 36.5625 38.5938Z" fill="#699635"/>
<path d="M35 35.1562C35 35.1562 36.875 37.6562 40.8594 41.0156L40.7813 43.3594L43.5156 42.5781L43.5938 40.0781C43.5938 40.0781 39.5312 36.1719 38.5156 34.2969C38.5938 34.2969 37.2656 34.8437 35 35.1562Z" fill="#F9F3D9"/>
<path d="M35.9375 1.5625C35.9375 6.32812 29.7656 14.0625 25 14.0625C20.2344 14.0625 14.0625 7.10938 14.0625 2.34375C14.0625 -2.42188 14.7656 2.34375 19.5312 2.34375C20.2344 2.34375 23.5156 0 25 0C26.0156 0 28.9062 2.34375 30.4688 2.34375C34.6094 2.34375 35.9375 -2.03125 35.9375 1.5625Z" fill="#DBB471"/>
<path d="M23.5936 10.3907C23.1249 10.7032 20.8593 10.4688 20.1561 11.0157C19.2186 11.7188 20.5468 13.3594 19.6093 14.375C17.7343 16.25 16.2499 18.3594 16.7186 19.5313C17.4999 21.5625 18.9843 15.7813 20.3124 17.9688C21.6405 20.1563 21.4061 16.4844 23.4374 18.3594C25.4686 20.2344 23.7499 15 25.703 17.2657C27.6561 19.5313 27.7343 22.1094 29.1405 22.1094C30.7811 22.1094 27.4218 15.9375 29.6093 17.4219C31.7968 18.9063 34.2186 18.3594 32.0311 16.0938C31.328 15.3907 30.3905 14.1407 29.2968 13.0469C28.9061 12.6563 29.2186 10.625 28.828 10.3125C28.3593 9.92191 27.1874 11.1719 26.7186 10.9375C25.7811 10.4688 26.0936 11.3282 24.6874 11.5625C23.7499 11.875 24.5311 9.76566 23.5936 10.3907Z" fill="#89664C"/>
<path d="M14.6093 15.0001C17.6561 12.1094 23.203 13.7501 26.4843 15.1563C29.6874 16.5626 31.6405 12.1094 29.6093 9.84382C28.4374 8.5157 26.5624 10.0782 25.8593 11.0157C25.078 11.9532 24.453 12.9688 23.5936 13.9063C22.3436 15.3126 19.2968 14.1407 20.2343 12.1876C21.2499 10.1563 25.5468 12.5001 26.953 12.8907C29.6874 13.6719 32.578 13.9844 35.3124 12.9688C36.2499 12.6563 35.8593 11.0938 34.9218 11.4844C31.8749 12.5782 28.828 11.8751 25.9374 10.9376C24.453 10.4688 22.1093 9.21882 20.5468 9.92195C16.0936 12.0313 20.2343 18.0469 23.9843 15.7032C24.8436 15.1563 25.3905 14.2969 26.0155 13.5157C26.4061 13.0469 28.3593 10.0782 28.828 11.5626C29.0624 12.3438 28.828 13.7501 27.9686 13.9844C27.4218 14.2188 26.328 13.4376 25.7811 13.2813C24.7655 12.8907 23.7499 12.5782 22.6561 12.3438C19.7655 11.7188 15.8593 11.8751 13.5936 13.9844C12.8124 14.6094 13.9061 15.7032 14.6093 15.0001Z" fill="#E8E8E8"/>
<path d="M35 0.390625C34.2188 1.01562 32.8125 2.34375 30.4688 2.34375C28.9062 2.34375 26.0156 0 25 0C23.5156 0 20.2344 2.34375 19.5312 2.34375C16.9531 2.34375 15.5469 1.01562 14.8438 0.46875C14.8438 0.46875 15.7031 3.98438 18.3594 5.78125C20.3125 7.03125 20.0781 5.54688 21.0938 4.14062C22.1094 2.73438 22.8125 2.03125 24.6094 5.54688C25.5469 7.5 27.3437 0.234375 28.75 2.57812C31.3281 6.875 32.2656 4.53125 35 0.390625Z" fill="#89664C"/>
<path d="M40.9375 40.9375L40.8594 43.2813L43.5938 42.5L43.6719 40C43.6719 40.0781 42.0313 40.7031 40.9375 40.9375ZM38.9063 45.625V47.8906L41.9531 46.9531V44.6094C41.875 44.5312 41.0938 45 38.9063 45.625ZM9.14065 46.25L9.37502 48.4375L6.64065 47.8125L6.4844 45.5469C6.40627 45.5469 7.50002 45.9375 9.14065 46.25Z" fill="#DBB471"/>
</g>
<defs>
<clipPath id="clip0_23800_1047">
<rect width="50" height="50" fill="white"/>
</clipPath>
</defs>
</svg>
