<svg width="50" height="50" viewBox="0 0 50 50" fill="none" xmlns="http://www.w3.org/2000/svg">
<path d="M22.6523 20.9883C22.6523 20.9883 22.4453 20.3906 21.9961 20.1836C21.5508 19.9766 20.8047 19.9453 20.8047 19.9453L19.5547 34.7305L20.5703 42.0273C20.5703 42.0273 20.8672 42.8906 21.6445 42.9219C22.418 42.9531 28.8594 42.9219 29.4258 42.9219C29.9922 42.9219 30.1719 42.1758 30.1992 41.8477C30.2305 41.5195 30.2188 40.9687 30.2188 40.9687L32.9688 40.957C32.9688 40.957 33.1289 42.1289 32.8633 42.8672C32.6328 43.5078 32.4258 44.0195 32.4297 44.2383C32.4336 44.5508 32.8477 44.8633 33.3242 44.8359C33.8008 44.8047 34.5156 44.1797 34.9922 43.793C35.4688 43.4062 43.1094 43.4961 43.1094 43.4961C43.1094 43.4961 43.4766 44.1758 43.8867 44.5859C44.1328 44.832 44.5312 44.9531 44.8906 44.9531C45.25 44.9531 45.6953 44.4766 45.6055 44.1484C45.5156 43.8203 45.1094 43.0664 45.0391 42.332C45.0078 42 45.0469 41.0742 45.2109 40.9219C45.25 40.8867 45.8438 40.9062 46.3984 40.8477C47.3438 40.75 48.2891 39.5273 48.4062 38.5742C48.5273 37.6211 48.4375 34.6094 48.4375 34.6094L22.6523 20.9883Z" fill="#B3AFAF"/>
<path d="M20.3203 37.543H48.457C48.457 37.543 48.5234 38.332 48.3867 38.8398C48.3143 39.1094 48.191 39.3627 48.0234 39.5859L20.4805 39.582L20.3203 37.543Z" fill="#9A9A9A"/>
<path d="M10.4492 36.2656L4.49219 38.1094L1.51562 37.082C1.51562 37.082 1.62109 31.4805 1.65625 30.9141C1.69141 30.3477 1.83203 29.8516 2.36719 29.4961C2.89844 29.1406 4.38672 28.2539 4.38672 28.2539C4.38672 28.2539 8.96094 20.9141 9.35156 20.3828C9.74219 19.8516 10.2227 19.2031 11.3594 19.0977C12.4961 18.9922 19.5117 19.0781 20.1484 19.1133C20.7852 19.1485 21.2617 19.4375 21.2617 20.8203C21.2617 22.2031 21.2266 32.7578 21.1914 33.2891C21.1562 33.8203 18.4961 35.7695 18.4961 35.7695L10.4492 36.2656Z" fill="#E0E0E0"/>
<path d="M19.1211 42.9805C19.1211 42.9805 19.6914 42.9961 20.0859 42.9414C20.4805 42.8867 21.0742 42.4922 21.1016 41.5586C21.1172 41.0039 21.1914 33.2891 21.1914 33.2891L10.5664 33.3125L7.12891 37.0742L1.51563 37.082C1.51563 37.082 1.49219 39.2891 1.50781 39.8789C1.52344 40.4727 4.57812 41.7656 4.57812 41.7656L19.1211 42.9805Z" fill="#DC0D28"/>
<path d="M1.50781 39.879H7.90625C7.90625 39.879 9.27734 37.1446 13.2187 37.1915C19.0078 37.2618 19.125 42.9767 19.125 42.9767H4.04687C3.19921 42.9767 1.98828 42.6954 1.67968 41.6251C1.41796 40.7267 1.50781 39.879 1.50781 39.879Z" fill="#B10A1B"/>
<path d="M5.42566 29.7891C5.42566 29.7891 5.42566 29.1523 5.0077 29.1289C4.58973 29.1055 4.12879 29.3672 3.71082 29.7226C3.26942 30.0976 3.05067 30.4375 2.96473 30.7344C2.83192 31.1758 2.94129 31.5703 3.62488 31.5898C4.46082 31.6172 17.7343 31.5312 18.3475 31.4805C19.1171 31.4141 19.578 31.0859 19.5546 30.5117C19.535 29.9609 19.1366 29.7851 17.4882 29.7656C15.8397 29.7461 5.42566 29.7891 5.42566 29.7891Z" fill="white"/>
<path d="M1.64062 31.6523C1.64062 31.6523 5.62891 31.5273 5.71484 31.6249C5.83594 31.7695 5.85938 33.6523 5.81641 33.9374C5.77344 34.2226 5.39844 34.4218 4.9375 34.4413C4.47656 34.4609 1.57422 34.5078 1.57422 34.5078L1.64062 31.6523Z" fill="#FDEDC5"/>
<path d="M18.0626 29.1055C18.6798 29.1055 18.8985 28.4024 18.8985 27.918V21.7891C18.8985 21.3047 18.5899 21.043 17.6251 20.9961C16.6564 20.9532 12.2423 21.0039 11.7579 21.0196C11.0118 21.043 10.504 21.3711 9.82432 22.3164C9.38291 22.9297 6.66026 27.4375 6.44151 27.8086C6.22276 28.1836 5.95713 29.1719 7.10166 29.1914C8.28526 29.2149 18.0626 29.1055 18.0626 29.1055Z" fill="#5F6369"/>
<path d="M7.66797 28.0742H17.5117C17.7109 28.0742 17.8867 27.8555 17.8867 27.5899C17.8867 27.3242 17.9023 23.1758 17.9102 22.9297C17.9336 22.25 17.4258 22.0938 16.9883 22.1172C16.5469 22.1406 12.1016 22.125 11.8398 22.1367C11.3359 22.1602 10.8359 22.8359 10.3984 23.5039C9.87109 24.3125 7.66797 28.0742 7.66797 28.0742Z" fill="#AFE3FB"/>
<path d="M7.82036 28.8008C7.86333 29.7891 9.44536 30.6016 9.8438 30.625C10.2383 30.6484 10.4805 29.8789 10.5235 28.8437C10.5665 27.8086 10.1524 26.9531 9.82036 26.9531C9.49223 26.9531 7.7852 27.9648 7.82036 28.8008Z" fill="#5F6369"/>
<path d="M8.16401 43.6017C8.19526 45.5548 9.74995 48.3634 13.1328 48.3829C16.5156 48.4024 18.2734 45.8087 18.164 43.1485C18.0546 40.4454 15.957 38.5353 12.9374 38.6212C10.1132 38.7071 8.12104 40.9024 8.16401 43.6017Z" fill="#4E433D"/>
<path d="M10.5821 43.4882C10.5977 44.5155 11.4141 45.9999 13.1953 46.0116C14.9766 46.0233 15.836 44.7343 15.7813 43.3319C15.7227 41.9061 14.586 40.8436 13.0938 40.8671C11.6094 40.8866 10.5625 42.0624 10.5821 43.4882Z" fill="#C8C8C8"/>
<path d="M33.9453 43.6017C33.9765 45.5548 35.5312 48.3634 38.914 48.3829C42.2968 48.4024 44.0546 45.8087 43.9453 43.1485C43.8359 40.4454 41.7382 38.5353 38.7187 38.6212C35.8945 38.7071 33.9023 40.9024 33.9453 43.6017Z" fill="#4E433D"/>
<path d="M36.3633 43.4882C36.3789 44.5155 37.1953 45.9999 38.9766 46.0116C40.7539 46.0233 41.6172 44.7343 41.5625 43.3319C41.5039 41.9061 40.3672 40.8436 38.875 40.8671C37.3906 40.8866 36.3438 42.0624 36.3633 43.4882Z" fill="#C8C8C8"/>
<path d="M22.2148 11.1797C22.2148 10.1563 22.6641 9.74609 23.4844 9.78906C24.3047 9.82812 46.7852 9.70703 47.5195 9.70703C48.2539 9.70703 48.543 10.4844 48.543 10.9336C48.543 11.3828 48.4023 34.1719 48.4336 34.6133C48.4609 35.0547 48.3398 35.668 47.5625 35.75C46.7852 35.832 23.7305 35.7891 23.2383 35.75C22.7461 35.7109 22.1328 35.3008 22.1328 34.7266C22.1328 34.1484 22.2148 11.7109 22.2148 11.1797Z" fill="#D16E1D"/>
<path d="M24.2617 12.0781C24.2617 12.6094 24.0977 32.5117 24.0977 33.0039C24.0977 33.4961 24.3438 34.0703 25 34.0703C25.6563 34.0703 45.8008 34.1094 46.2109 34.0703C46.6211 34.0312 46.8672 33.7852 46.9063 33.1289C46.9453 32.4727 46.9453 12.4922 46.9453 11.8359C46.9453 11.1797 46.2891 11.1406 45.5938 11.1406C44.8984 11.1406 25.2031 11.1797 24.9141 11.2227C24.6289 11.2578 24.2617 11.5469 24.2617 12.0781Z" fill="#F5B03A"/>
<path d="M29.0821 34.7656C29.0586 27.5586 29.0079 10.75 29.0899 10.293L29.668 10.3984L30.25 10.4687C30.1954 11.1133 30.2227 25.3477 30.2539 34.7617L29.0821 34.7656ZM35.0586 10.3594H36.2305V34.8047H35.0586V10.3594ZM40.9727 10.3789H42.1446V34.7031H40.9727V10.3789Z" fill="#D16E1D"/>
</svg>
