<svg width="50" height="50" viewBox="0 0 50 50" fill="none" xmlns="http://www.w3.org/2000/svg">
<path d="M30.2083 44.7917V40L32.9166 40.5208C35.9374 41.1458 38.7499 38.9583 38.9583 35.9375L39.5833 29.1667L42.6041 27.9167C43.6458 27.5 44.0624 26.25 43.4374 25.2083L39.5833 18.75C38.9583 10.8333 34.4791 3.125 22.9166 3.125C11.0416 3.125 5.20825 11.875 5.20825 20.8333C5.20825 24.6875 6.56242 28.0208 8.64575 30.8333C10.5208 33.4375 11.4583 36.5625 11.4583 39.6875V44.6875H30.2083V44.7917Z" fill="#FFB74D"/>
<path d="M30.2084 44.7917V40.0001L22.9167 38.5417V44.7917H30.2084Z" fill="#FF9800"/>
<path d="M34.8958 23.9583C35.7587 23.9583 36.4583 23.2587 36.4583 22.3958C36.4583 21.5328 35.7587 20.8333 34.8958 20.8333C34.0328 20.8333 33.3333 21.5328 33.3333 22.3958C33.3333 23.2587 34.0328 23.9583 34.8958 23.9583Z" fill="#784719"/>
<path d="M22.2916 3.125C12.8124 3.125 5.20825 10.7292 5.20825 20.2083C5.20825 31.7708 11.4583 32.0833 11.4583 39.5833L14.1666 38.6458C16.3541 37.9167 18.2291 36.25 19.0624 34.0625L21.9791 26.9792L28.1249 23.9583V17.7083C28.1249 17.7083 35.4166 13.75 35.4166 6.97917C32.2916 4.375 26.7708 3.125 22.2916 3.125Z" fill="#FF5722"/>
<path d="M21.8749 2.1875C21.2499 2.1875 20.8333 2.60417 20.8333 3.22917V17.7083C20.8333 18.3333 21.2499 18.75 21.8749 18.75C22.4999 18.75 22.9166 18.3333 22.9166 17.7083V3.22917C22.9166 2.60417 22.4999 2.1875 21.8749 2.1875ZM38.4374 33.2292C30.2083 33.2292 27.7083 28.125 27.6041 27.9167C27.3958 27.3958 26.7708 27.1875 26.2499 27.3958C25.7291 27.6042 25.5208 28.2292 25.7291 28.75C25.8333 29.0625 28.8541 35.3125 38.4374 35.3125C39.0624 35.3125 39.4791 34.8958 39.4791 34.2708C39.4791 33.6458 38.9583 33.2292 38.4374 33.2292Z" fill="#546E7A"/>
<path d="M38.5416 36.4584C39.6922 36.4584 40.6249 35.5257 40.6249 34.3751C40.6249 33.2245 39.6922 32.2917 38.5416 32.2917C37.391 32.2917 36.4583 33.2245 36.4583 34.3751C36.4583 35.5257 37.391 36.4584 38.5416 36.4584Z" fill="#37474F"/>
<path d="M21.8749 31.2501C25.902 31.2501 29.1666 27.9855 29.1666 23.9584C29.1666 19.9313 25.902 16.6667 21.8749 16.6667C17.8478 16.6667 14.5833 19.9313 14.5833 23.9584C14.5833 27.9855 17.8478 31.2501 21.8749 31.2501Z" fill="#37474F"/>
<path d="M21.8749 28.1251C24.1761 28.1251 26.0416 26.2596 26.0416 23.9584C26.0416 21.6572 24.1761 19.7917 21.8749 19.7917C19.5737 19.7917 17.7083 21.6572 17.7083 23.9584C17.7083 26.2596 19.5737 28.1251 21.8749 28.1251Z" fill="#546E7A"/>
</svg>
